<svg xmlns="http://www.w3.org/2000/svg" xmlns:xlink="http://www.w3.org/1999/xlink" viewBox="0 0 338.75 409.43"><defs><style>.cls-1{fill:url(#linear-gradient);}.cls-2{fill:url(#linear-gradient-2);}.cls-3{fill:url(#linear-gradient-3);}.cls-4{fill:url(#linear-gradient-4);}.cls-5{fill:url(#linear-gradient-5);}.cls-6{fill:url(#linear-gradient-6);}</style><linearGradient id="linear-gradient" x1="108.91" y1="125.74" x2="338.26" y2="125.74" gradientUnits="userSpaceOnUse"><stop offset="0" stop-color="#1b00ff"/><stop offset="1" stop-color="#00afff"/></linearGradient><linearGradient id="linear-gradient-2" x1="1.03" y1="290.71" x2="220.48" y2="290.71" xlink:href="#linear-gradient"/><linearGradient id="linear-gradient-3" x1="2.63" y1="236.59" x2="221.22" y2="236.59" xlink:href="#linear-gradient"/><linearGradient id="linear-gradient-4" x1="111.54" y1="77.08" x2="338.75" y2="77.08" xlink:href="#linear-gradient"/><linearGradient id="linear-gradient-5" x1="0" y1="332.39" x2="220.5" y2="332.39" xlink:href="#linear-gradient"/><linearGradient id="linear-gradient-6" x1="284.18" y1="197.01" x2="284.18" y2="105.06" xlink:href="#linear-gradient"/></defs><g id="Layer_2" data-name="Layer 2"><g id="Layer_1-2" data-name="Layer 1"><path class="cls-1" d="M110.34,201.27c-5.39-23.07,5.23-37.21,18.91-49.49,19.31-17.33,43.24-25.49,67.85-31.76,15.76-4,31.81-7,47.44-11.39,36-10.25,67.11-28.6,91.83-58.41,2.23,14,4.08,27.49-4.21,40.3-17.88,27.62-43.15,46.31-74.51,53.66C206.34,156.21,156.05,170,110.34,201.27Z"/><path class="cls-2" d="M219.63,214.41c2,11.51.77,21.7-7.15,31.57-22.46,28-52,43.8-86.24,51.33-36.61,8.05-71.4,19.54-99.23,46.07C19.2,350.83,12.1,359,4.45,367.14c-8.45-22-.9-47.14,19.2-66.1,21.72-20.48,48.06-31.5,76.87-37.16,42.28-8.31,82.9-20.31,116.31-49.42C217.27,214.08,218.32,214.41,219.63,214.41Z"/><path class="cls-3" d="M5.57,310.21c-5-11.73-3.75-20.11,4.77-27,19.57-15.77,37.93-33.39,58.88-47,40.85-26.56,82.42-52.28,128.93-68.38,4.6-1.59,9.34-2.76,14.06-4a67,67,0,0,1,7.48-.92c1.27,14.22,4.74,27.2-6.35,39.95-21.71,25-50.8,35.64-80.92,44.69-12,3.62-24.46,6-36.76,8.72C60.13,264.09,29,279.4,5.57,310.21Z"/><path class="cls-4" d="M336.81,0c3.45,14.54,2.61,26.79-5.09,38.38-23.67,35.62-58.5,54.18-98.57,64.71-8.64,2.27-17.5,3.72-26.22,5.72C172.66,116.65,139.54,127,114,154.15c-5-9.75-1.77-16.05,5.23-20.73,29.37-19.61,58.37-39.83,88.45-58.29,38.79-23.79,78.48-46.12,117.81-69C328.85,4.11,332.35,2.38,336.81,0Z"/><path class="cls-5" d="M219,255.34c3,9.34,1.56,16.19-5.89,23-30,27.47-64.68,47.72-99.87,67.46C80,364.51,47.19,384.23,14.19,403.5c-3.4,2-6.82,3.95-10.23,5.93l-4-1.85c3.32-10.27,4.75-21.72,10.29-30.6,22.45-36,55.55-57.74,96.94-66.18,30.14-6.15,59.55-13.85,84.77-32.34C201.36,271.59,209.73,263.36,219,255.34Z"/><path class="cls-6" d="M336.52,105.06c2,7.4,2.28,14.41-5.11,21.71-28.88,28.56-61.6,51.36-100.63,70.24,0-11.94-.56-22.22.43-32.35.22-2.33,5.51-4.79,8.89-6.11,18.47-7.19,38-12.21,55.32-21.56C310.39,128.88,322.77,116,336.52,105.06Z"/></g></g></svg>